<svg width="260" height="62" viewBox="0 0 260 62" xmlns="http://www.w3.org/2000/svg" xmlns:xlink="http://www.w3.org/1999/xlink"><title>logo</title><defs><path id="a" d="M182.618 19.453V.075H.114v19.378z"/><path id="c" d="M0 .15v12.518h27.167V.15H0z"/></defs><g fill="none" fill-rule="evenodd"><g transform="translate(77.297 40.617)"><mask id="b" fill="#fff"><use xlink:href="#a"/></mask><path d="M.142.99C.034.61.25.343.626.343h1.127c.213 0 .428.187.482.376l3.73 13.94h.11L10.555.37c.056-.162.216-.296.458-.296h.483c.214 0 .402.134.457.296l4.562 14.292h.108L20.275.72c.052-.19.268-.376.482-.376h1.127c.376 0 .592.268.483.645l-5.072 18.084a.518.518 0 0 1-.485.378h-.428a.55.55 0 0 1-.457-.296L11.28 4.596h-.132l-4.565 14.56a.547.547 0 0 1-.455.297h-.43a.517.517 0 0 1-.484-.378L.142.99zM27.404.854c0-.27.217-.51.512-.51h10.576a.51.51 0 0 1 .51.51v.78a.51.51 0 0 1-.51.51h-9.02v6.57h7.704c.268 0 .51.24.51.51v.78a.51.51 0 0 1-.51.51h-7.704v6.863h9.02c.295 0 .51.244.51.513v.78a.51.51 0 0 1-.51.512H27.916a.512.512 0 0 1-.512-.51V.854zm23.672 7.94c2.065 0 3.22-1.482 3.22-3.366 0-1.938-1.155-3.23-3.22-3.23H46.7v6.594h4.376zm.455 8.583c1.96 0 3.383-1.478 3.383-3.417 0-1.91-1.744-3.31-3.836-3.31h-4.432v6.728h4.887zM44.687.855a.51.51 0 0 1 .51-.51h5.88c3.274 0 5.503 2.125 5.503 4.95 0 2.073-1.37 3.58-2.63 4.307 1.42.592 3.22 1.91 3.22 4.388 0 3.012-2.39 5.192-5.85 5.192h-6.124a.51.51 0 0 1-.51-.51V.854zm35.693 11.92c-1.316-2.93-2.605-5.89-3.92-8.825h-.215l-3.92 8.826h8.054zm-12.75 5.708L75.787.37c.08-.16.214-.295.456-.295h.268c.242 0 .377.134.458.296l8.105 18.114c.162.35-.053.7-.455.7h-1.075a.494.494 0 0 1-.456-.295L81.1 14.446h-9.53l-1.96 4.442a.495.495 0 0 1-.454.293h-1.076c-.404 0-.617-.35-.456-.7zM97.603.075c2.71 0 4.67.943 6.496 2.502.216.216.242.54.027.754-.24.245-.536.514-.75.755-.242.27-.404.242-.7-.027-1.368-1.21-3.3-2.1-5.098-2.1-4.245 0-7.466 3.553-7.466 7.725 0 4.146 3.22 7.778 7.464 7.778 2.95 0 4.83-1.13 4.83-1.13v-3.767H99.32c-.294 0-.51-.214-.51-.485v-.994c0-.298.216-.513.51-.513h4.645c.268 0 .483.245.483.514v6.163a.667.667 0 0 1-.215.428s-2.738 1.78-6.63 1.78c-5.368 0-9.69-4.28-9.69-9.665 0-5.382 4.322-9.715 9.69-9.715zm12.716.78c0-.27.215-.51.51-.51h10.576a.51.51 0 0 1 .51.51v.78a.51.51 0 0 1-.51.51h-9.018v6.57h7.703c.27 0 .51.24.51.51v.78a.51.51 0 0 1-.51.51h-7.7v6.863h9.017c.295 0 .51.244.51.513v.78a.51.51 0 0 1-.51.513H110.83a.51.51 0 0 1-.51-.51V.853zM127.6.56c0-.27.244-.485.51-.485h.673L140.89 15.2h.053V.854a.51.51 0 0 1 .51-.51h.94c.27 0 .51.24.51.51v18.113c0 .27-.24.485-.51.485h-.483l-12.322-15.42h-.028V18.67a.51.51 0 0 1-.508.512h-.94a.53.53 0 0 1-.51-.51V.56zm30.486-.485c2.71 0 4.67.943 6.496 2.502.216.216.24.54.026.754l-.725.728c-.213.27-.427.244-.695-.025-1.397-1.212-3.302-2.02-5.127-2.02-4.24 0-7.49 3.58-7.49 7.752 0 4.144 3.25 7.723 7.49 7.723 2.336 0 3.705-.94 5.13-2.02.267-.213.48-.187.642-.08l.806.728c.216.162.162.538-.028.727-1.824 1.775-4.133 2.61-6.522 2.61-5.367 0-9.69-4.28-9.69-9.663 0-5.382 4.323-9.715 9.69-9.715zm15.832 10.038l-6.47-8.988c-.214-.35 0-.78.43-.78h1.26c.188 0 .35.134.43.24l5.424 7.51 5.422-7.51c.08-.106.24-.24.43-.24h1.26c.43 0 .645.43.43.78l-6.55 8.96v8.586a.53.53 0 0 1-.51.513h-1.046a.51.51 0 0 1-.51-.51v-8.56z" fill="#FEFEFE" mask="url(#b)"/></g><path d="M97.62 30.252l-2.26-2.34c-.353-.353-1.106-.367-1.487-.033-1.615 1.31-3.386 1.972-5.268 1.972-4.3 0-7.67-3.488-7.67-7.943 0-4.497 3.354-8.018 7.635-8.018 1.895 0 3.812.73 5.258 2.005.435.438 1.172.423 1.533.007l2.21-2.284c.23-.23.35-.528.343-.836a1.134 1.134 0 0 0-.395-.82c-2.683-2.416-5.475-3.49-9.056-3.49-7.448 0-13.508 6.075-13.508 13.545 0 7.427 6.06 13.47 13.51 13.47 3.504 0 6.653-1.26 9.11-3.65.23-.23.36-.566.35-.894-.01-.278-.125-.544-.3-.695zm23.858-8.233c0-4.308-3.612-7.947-7.89-7.947-4.327 0-7.85 3.564-7.85 7.945 0 4.34 3.523 7.87 7.85 7.87 4.35 0 7.89-3.53 7.89-7.87zm5.585 0c0 7.552-5.918 13.47-13.474 13.47-7.536 0-13.44-5.918-13.44-13.47 0-7.47 6.03-13.548 13.438-13.548 7.428 0 13.473 6.076 13.473 13.546zm32.617 11.76l-4.27-24.37c-.068-.555-.515-.94-1.087-.94h-.58c-.46 0-.812.215-1.015.623l-7.62 16.39-7.628-16.41a1.1 1.1 0 0 0-1.005-.602h-.58c-.564 0-1.02.38-1.084.903l-4.31 24.42c-.055.37.035.714.247.96.21.242.52.373.876.373h3.26c.508 0 1.015-.427 1.084-.916l1.904-12.466 5.89 13.107c.204.41.562.64 1.006.64h.65c.473 0 .89-.266 1.014-.648l5.813-13.095 1.95 12.533c.118.408.566.848 1.107.848h3.296c.367 0 .682-.138.887-.39.202-.256.275-.602.198-.956zm19.55-16.627c0-1.67-1.442-3.08-3.145-3.08h-5.463v6.342h5.463c1.703 0 3.144-1.494 3.144-3.262zm5.585-.074c0 3.185-1.886 5.98-5.044 7.483l-.137.066 4.733 8.794c.2.375.2.822-.007 1.166-.206.342-.568.538-.997.538h-3.8a1.07 1.07 0 0 1-.976-.57l-4.65-9.294-.042-.082h-3.307v8.816c0 .613-.516 1.13-1.13 1.13h-3.328a1.13 1.13 0 0 1-1.13-1.13V9.968c0-.624.508-1.133 1.13-1.133h10.353c4.595 0 8.332 3.7 8.332 8.246zm17.634 8.49l-2.99-6.59-2.93 6.59h5.918zm9.392 9.06c-.2.316-.553.497-.963.497h-3.15c-.843 0-1.19-.465-1.443-.963l-1.664-3.683h-10.26l-1.662 3.67c-.24.61-.782.977-1.445.977h-3.15c-.41 0-.76-.18-.963-.5a1.116 1.116 0 0 1-.05-1.07l11.256-24.425c.214-.43.566-.66 1.017-.66h.36c.69 0 .923.467 1.01.64l11.16 24.45c.163.358.144.757-.054 1.067zm20.684-12.685c0-4.54-3.24-7.836-7.706-7.836h-3.686v15.707h3.687c4.467 0 7.708-3.31 7.708-7.872zm5.876 0c0 7.27-5.897 13.182-13.15 13.182h-8.577c-.593 0-1.09-.517-1.09-1.13V9.967c0-.613.497-1.132 1.09-1.132h8.578c7.252 0 13.15 5.883 13.15 13.11zm19.625-1.67v3.014a1.13 1.13 0 0 1-1.127 1.13h-8.5v5.47h10.276c.62 0 1.126.51 1.126 1.13v2.977a1.13 1.13 0 0 1-1.126 1.13H243.94a1.13 1.13 0 0 1-1.127-1.13V9.967a1.13 1.13 0 0 1 1.126-1.132h14.735c.62 0 1.126.51 1.126 1.132v2.977a1.13 1.13 0 0 1-1.125 1.13H248.4v5.072h8.5c.613 0 1.128.517 1.128 1.13z" fill="#FEFEFE"/><path fill="#C62127" d="M38.485 32.15l26.277-8.563-20.07-3.956-7.102 9.8z"/><path fill="#C95D27" d="M39.387 34.896l11.502 3.748 13.87-15.056-26.275 8.562z"/><path fill="#5E2E81" d="M32.38 27.724V0l-9.966 17.923 7.103 9.8z"/><path fill="#C7197C" d="M35.244 27.724l7.104-9.802L32.38 0v27.724z"/><path fill="#0D9B4A" d="M28.606 39.35L12.368 61.754l18.564-8.557v-12.13z"/><path fill="#1F756A" d="M26.3 37.65l-11.533 3.757-2.4 20.345 16.24-22.4z"/><g transform="translate(0 19.48)"><mask id="d" fill="#fff"><use xlink:href="#c"/></mask><path fill="#2E2E7C" mask="url(#d)" d="M27.167 9.943L20.07.15 0 4.106l26.27 8.562z"/></g><path fill="#1D65A9" d="M26.27 32.148L0 23.588l13.873 15.055 11.495-3.745z"/><path fill="#76B043" d="M33.83 41.015v12.182l18.562 8.556L36.13 39.317z"/><path fill="#C9C82C" d="M36.13 39.317l16.262 22.436-2.4-20.348-11.58-3.772z"/></g></svg>